<svg width="12" height="16" viewBox="0 0 12 16" fill="none" xmlns="http://www.w3.org/2000/svg">
<path fill-rule="evenodd" clip-rule="evenodd" d="M11.9449 6.67242C12.1787 5.10711 10.9869 4.26564 9.35722 3.70429L9.88585 1.58388L8.59478 1.26222L8.08012 3.32675C7.74118 3.2422 7.39268 3.16242 7.04639 3.08339L7.56473 1.00526L6.27476 0.683594L5.74576 2.80326C5.46491 2.7393 5.18919 2.67607 4.92157 2.60953L4.92304 2.60291L3.14305 2.15847L2.79969 3.53702C2.79969 3.53702 3.75733 3.75649 3.73711 3.77009C4.25986 3.9006 4.35471 4.24652 4.33853 4.52076L3.73638 6.93636C3.77241 6.94556 3.81909 6.95879 3.87056 6.97938L3.73454 6.94556L2.89013 10.3295C2.82616 10.4883 2.66404 10.7265 2.29863 10.636C2.3115 10.6548 1.36048 10.4019 1.36048 10.4019L0.719727 11.8797L2.39973 12.2984C2.58937 12.3459 2.77672 12.3948 2.96201 12.4431C3.08201 12.4745 3.20115 12.5055 3.3195 12.5359L2.78536 14.6809L4.07459 15.0026L4.60395 12.8807C4.95576 12.9763 5.29764 13.0645 5.63217 13.1476L5.10501 15.2595L6.39571 15.5812L6.92985 13.4406C9.13077 13.8571 10.7861 13.6891 11.482 11.6988C12.0434 10.096 11.4545 9.17147 10.2965 8.56821C11.1398 8.37301 11.775 7.81827 11.9445 6.67242H11.9449ZM8.99541 10.8077C8.62899 12.2788 6.3259 11.6701 5.27307 11.3918C5.17878 11.3669 5.09453 11.3447 5.02259 11.3268L5.73135 8.48546C5.81928 8.50741 5.92671 8.53151 6.0484 8.55882C7.1376 8.80324 9.36976 9.30413 8.99578 10.8077H8.99541ZM6.26727 7.24043C7.14575 7.47479 9.06063 7.98565 9.39421 6.6493C9.73525 5.28217 7.87323 4.87011 6.96384 4.66887C6.86161 4.64624 6.77142 4.62628 6.69775 4.60793L6.05516 7.18492C6.11596 7.20006 6.18732 7.2191 6.26727 7.24043Z" fill="#CAFF33"/>
</svg>
