<svg width="178" height="53" viewBox="0 0 178 53" fill="none" xmlns="http://www.w3.org/2000/svg">
<rect x="0.91008" y="1.1093" width="176.008" height="51.1551" rx="25.5776" fill="#1A1A1A"/>
<rect x="0.91008" y="1.1093" width="176.008" height="51.1551" rx="25.5776" stroke="#262626" stroke-width="0.867036"/>
<path fill-rule="evenodd" clip-rule="evenodd" d="M26.4872 44.0276C36.0642 44.0276 43.8279 36.2639 43.8279 26.6869C43.8279 17.1099 36.0642 9.34619 26.4872 9.34619C16.9102 9.34619 9.14648 17.1099 9.14648 26.6869C9.14648 36.2639 16.9102 44.0276 26.4872 44.0276Z" fill="#262626"/>
<path fill-rule="evenodd" clip-rule="evenodd" d="M24.9678 18.6836C25.9201 18.6836 26.869 18.6836 27.8214 18.6836C27.7653 19.3278 27.7058 19.9756 27.6533 20.6198C28.7632 20.7003 29.8451 21.0575 30.8185 21.5862C30.3983 22.6436 29.9747 23.701 29.551 24.7584C28.7317 24.0616 27.6533 23.6765 26.5784 23.6905C26.3088 23.6975 26.0287 23.75 25.8046 23.904C25.6575 24.0056 25.549 24.1631 25.5175 24.3382C25.493 24.4783 25.5 24.6358 25.577 24.7619C25.6646 24.9019 25.8186 24.9859 25.9727 25.0385C26.2878 25.1505 26.6274 25.1575 26.9565 25.1925C27.7303 25.2871 28.5076 25.4201 29.2394 25.6967C29.8066 25.9138 30.3493 26.2394 30.7379 26.7156C31.1056 27.1533 31.3192 27.7065 31.3997 28.2737C31.4942 28.9284 31.4662 29.6077 31.2631 30.2449C31.1056 30.7561 30.836 31.2323 30.4859 31.6349C29.7611 32.4752 28.6967 32.9794 27.6043 33.109C27.6393 33.7987 27.6813 34.485 27.7198 35.1747C26.8165 35.1747 25.9166 35.1747 25.0168 35.1747C25.0518 34.492 25.0973 33.8092 25.1289 33.1265C24.4041 33.102 23.6863 32.9409 23.0106 32.6853C22.3558 32.4367 21.7326 32.1076 21.1514 31.7225C21.5785 30.623 22.0057 29.5236 22.4363 28.4207C22.923 28.8304 23.4412 29.212 24.0084 29.5026C24.6177 29.8142 25.2934 30.0138 25.9797 30.0208C26.3053 30.0243 26.6414 30.0068 26.9495 29.8948C27.1386 29.8247 27.3242 29.7022 27.4082 29.5096C27.4957 29.3066 27.4887 29.051 27.3557 28.8689C27.2611 28.7463 27.1281 28.6623 26.988 28.6028C26.799 28.5258 26.6029 28.4837 26.4033 28.4522C25.6681 28.3332 24.9293 28.2352 24.2185 28.0041C23.6478 27.8185 23.0911 27.5594 22.6359 27.1603C22.3488 26.9117 22.1107 26.607 21.9427 26.2639C21.6906 25.7527 21.596 25.175 21.603 24.6078C21.603 23.9741 21.7326 23.3298 22.0477 22.7731C22.3208 22.2759 22.7375 21.8698 23.2066 21.5582C23.7738 21.1835 24.4076 20.9279 25.0518 20.7214C25.0238 20.0421 24.9958 19.3628 24.9678 18.6836Z" fill="#CAFF33"/>
<path d="M85.352 26.6875C85.352 36.2141 77.6294 43.9369 68.1029 43.9369C58.5763 43.9369 50.8535 36.2141 50.8535 26.6875C50.8535 17.161 58.5763 9.43823 68.1029 9.43823C77.6293 9.43823 85.352 17.161 85.352 26.6875Z" fill="#262626"/>
<path d="M72.9504 33.8947L72.5524 32.0873C72.5298 31.981 72.4729 31.9014 72.3818 31.8486C72.2833 31.7954 72.1848 31.788 72.0864 31.8259L72.0294 31.8486L71.8928 31.8826C71.8321 31.8976 71.762 31.9148 71.6825 31.9337C71.6029 31.9526 71.5102 31.9714 71.404 31.9905C71.2982 32.0095 71.1859 32.0266 71.0687 32.0418C70.9513 32.0566 70.8246 32.0701 70.688 32.0815C70.5515 32.0927 70.4152 32.0985 70.2787 32.0985C69.3161 32.0985 68.4501 31.839 67.681 31.3198C66.9117 30.8005 66.3452 30.0976 65.9814 29.211H70.3808C70.4643 29.211 70.5401 29.1827 70.608 29.1257C70.6765 29.069 70.7182 28.999 70.733 28.9153L71.0059 27.642C71.0287 27.5287 71.0059 27.4262 70.9378 27.3352C70.8621 27.2442 70.7671 27.1986 70.6536 27.1986H65.4358C65.4131 26.6833 65.4131 26.2854 65.4358 26.005H70.9835C71.1883 26.005 71.3094 25.9065 71.3473 25.7095L71.6201 24.4135C71.6427 24.3074 71.6166 24.209 71.5405 24.1179C71.4726 24.027 71.3778 23.9813 71.2565 23.9813H65.9361C66.315 23.1325 66.8834 22.4656 67.6414 21.9806C68.3993 21.4954 69.2557 21.2529 70.2106 21.2529C70.241 21.2378 70.3527 21.2416 70.5458 21.2643C70.739 21.2869 70.8491 21.2965 70.8755 21.2927C70.9017 21.2889 71.0006 21.3004 71.171 21.3267C71.3416 21.3532 71.4269 21.3665 71.4269 21.3665L71.6258 21.4063C71.6828 21.4177 71.7264 21.4271 71.7566 21.4347L71.8021 21.446C71.9006 21.4765 71.9913 21.4669 72.075 21.4177C72.1584 21.3683 72.2115 21.2945 72.2343 21.196L72.7232 19.3885C72.7458 19.2899 72.7343 19.199 72.6891 19.1157C72.6208 19.0246 72.5449 18.9677 72.4616 18.9451C71.7644 18.7708 71.0289 18.6836 70.2561 18.6836C68.5582 18.6836 67.0407 19.1688 65.703 20.1387C64.3653 21.1088 63.4426 22.3897 62.9348 23.9812H61.8208C61.7146 23.9812 61.6275 24.0153 61.5593 24.0835C61.4912 24.1516 61.457 24.2388 61.457 24.345V25.6409C61.457 25.747 61.4911 25.8342 61.5593 25.9023C61.6276 25.9706 61.7148 26.0045 61.8208 26.0045H62.5825C62.5596 26.3684 62.556 26.7661 62.571 27.1983H61.8208C61.7223 27.1983 61.637 27.2343 61.565 27.3063C61.4931 27.3782 61.457 27.4635 61.457 27.5619V28.8466C61.457 28.9452 61.4931 29.0303 61.565 29.1025C61.637 29.1745 61.7223 29.2101 61.8208 29.2101H62.9008C63.3782 30.8851 64.2802 32.2172 65.6065 33.2062C66.9329 34.1955 68.4827 34.6898 70.2561 34.6898C70.4002 34.6898 70.546 34.6863 70.6939 34.6784C70.842 34.6708 70.9801 34.6593 71.1089 34.6443C71.2377 34.6293 71.3647 34.6124 71.4898 34.5934C71.6148 34.5743 71.7285 34.5557 71.8307 34.5364C71.9331 34.5176 72.0297 34.4987 72.1206 34.4799C72.2116 34.4607 72.2931 34.4401 72.3652 34.4172C72.4371 34.3947 72.4975 34.3775 72.5469 34.3664C72.5963 34.3549 72.636 34.3414 72.6661 34.3266L72.7231 34.3151C72.8065 34.2849 72.871 34.2298 72.9164 34.1501C72.9619 34.071 72.973 33.9856 72.9504 33.8947Z" fill="#CAFF33"/>
<path d="M126.543 30.8821C124.227 40.1718 114.817 45.8249 105.526 43.5088C96.24 41.1927 90.5864 31.7832 92.903 22.494C95.218 13.2032 104.627 7.54904 113.915 9.86511C123.205 12.1812 128.858 21.5918 126.542 30.8821H126.543Z" fill="#262626"/>
<path fill-rule="evenodd" clip-rule="evenodd" d="M114.945 24.6724C115.179 23.1071 113.987 22.2656 112.357 21.7043L112.886 19.5839L111.595 19.2622L111.08 21.3267C110.741 21.2422 110.393 21.1624 110.046 21.0834L110.565 19.0053L109.275 18.6836L108.746 20.8033C108.465 20.7393 108.189 20.6761 107.922 20.6095L107.923 20.6029L106.143 20.1585L105.8 21.537C105.8 21.537 106.757 21.7565 106.737 21.7701C107.26 21.9006 107.355 22.2465 107.339 22.5208L106.736 24.9364C106.772 24.9456 106.819 24.9588 106.871 24.9794L106.735 24.9456L105.89 28.3295C105.826 28.4883 105.664 28.7265 105.299 28.636C105.312 28.6548 104.36 28.4019 104.36 28.4019L103.72 29.8797L105.4 30.2984C105.589 30.3459 105.777 30.3948 105.962 30.4431C106.082 30.4745 106.201 30.5055 106.32 30.5359L105.785 32.6809L107.075 33.0026L107.604 30.8807C107.956 30.9763 108.298 31.0645 108.632 31.1476L108.105 33.2595L109.396 33.5812L109.93 31.4406C112.131 31.8571 113.786 31.6891 114.482 29.6988C115.043 28.096 114.454 27.1715 113.296 26.5682C114.14 26.373 114.775 25.8183 114.944 24.6724H114.945ZM111.995 28.8077C111.629 30.2788 109.326 29.6701 108.273 29.3918C108.179 29.3669 108.095 29.3447 108.023 29.3268L108.731 26.4855C108.819 26.5074 108.927 26.5315 109.048 26.5588C110.138 26.8032 112.37 27.3041 111.996 28.8077H111.995ZM109.267 25.2404C110.146 25.4748 112.061 25.9857 112.394 24.6493C112.735 23.2822 110.873 22.8701 109.964 22.6689C109.862 22.6462 109.771 22.6263 109.698 22.6079L109.055 25.1849C109.116 25.2001 109.187 25.2191 109.267 25.2404Z" fill="#CAFF33"/>
<path d="M168.587 26.6875C168.587 36.2141 160.865 43.9369 151.338 43.9369C141.812 43.9369 134.089 36.2141 134.089 26.6875C134.089 17.161 141.812 9.43823 151.338 9.43823C160.865 9.43823 168.587 17.161 168.587 26.6875Z" fill="#262626"/>
<g opacity="0.8">
<path d="M151.283 18.6836L151.177 19.0457V29.5539L151.283 29.6603L156.161 26.777L151.283 18.6836Z" fill="#CAFF33"/>
<path d="M151.283 18.6836L146.405 26.777L151.283 29.6603V24.56V18.6836Z" fill="#CAFF33"/>
<path d="M151.283 31.2473L151.223 31.3205V35.0637L151.283 35.2391L156.163 28.3655L151.283 31.2473Z" fill="#CAFF33"/>
<path d="M151.283 35.2391V31.2473L146.405 28.3655L151.283 35.2391Z" fill="#CAFF33"/>
<path d="M151.283 29.6604L156.161 26.7771L151.283 24.5601V29.6604Z" fill="#CAFF33"/>
<path d="M146.405 26.7771L151.283 29.6604V24.5601L146.405 26.7771Z" fill="#CAFF33"/>
</g>
</svg>
