<svg width="11" height="18" viewBox="0 0 11 18" fill="none" xmlns="http://www.w3.org/2000/svg">
<path fill-rule="evenodd" clip-rule="evenodd" d="M3.96779 0.683594C4.92015 0.683594 5.869 0.683594 6.82136 0.683594C6.76533 1.32783 6.70581 1.97558 6.65329 2.61982C7.76321 2.70035 8.84511 3.05748 9.81847 3.58618C9.39832 4.64357 8.97466 5.70096 8.551 6.75836C7.7317 6.0616 6.65329 5.67646 5.57839 5.69046C5.30879 5.69746 5.02869 5.74998 4.8046 5.90404C4.65755 6.00558 4.54901 6.16314 4.5175 6.3382C4.49299 6.47825 4.49999 6.63581 4.57702 6.76186C4.66455 6.90191 4.81861 6.98594 4.97267 7.03846C5.28778 7.15051 5.62741 7.15751 5.95653 7.19252C6.73032 7.28706 7.50761 7.42011 8.23938 7.69671C8.8066 7.91379 9.3493 8.23941 9.73794 8.71559C10.1056 9.15325 10.3192 9.70646 10.3997 10.2737C10.4942 10.9284 10.4662 11.6077 10.2631 12.2449C10.1056 12.7561 9.83598 13.2323 9.48585 13.6349C8.76108 14.4752 7.69668 14.9794 6.60427 15.109C6.63929 15.7987 6.6813 16.485 6.71982 17.1747C5.81648 17.1747 4.91665 17.1747 4.01681 17.1747C4.05182 16.492 4.09734 15.8092 4.12885 15.1265C3.40408 15.102 2.68631 14.9409 2.01056 14.6853C1.35582 14.4367 0.732584 14.1076 0.151367 13.7225C0.578527 12.623 1.00569 11.5236 1.43635 10.4207C1.92303 10.8304 2.44122 11.212 3.00843 11.5026C3.61766 11.8142 4.29341 12.0138 4.97967 12.0208C5.30529 12.0243 5.64142 12.0068 5.94953 11.8948C6.1386 11.8247 6.32417 11.7022 6.4082 11.5096C6.49573 11.3066 6.48873 11.051 6.35568 10.8689C6.26115 10.7463 6.1281 10.6623 5.98805 10.6028C5.79897 10.5258 5.6029 10.4837 5.40333 10.4522C4.66805 10.3332 3.92928 10.2352 3.21851 10.0041C2.6478 9.8185 2.09109 9.5594 1.63592 9.16026C1.34881 8.91166 1.11073 8.60705 0.942662 8.26392C0.690568 7.75273 0.596033 7.17501 0.603036 6.6078C0.603036 5.97407 0.732584 5.32983 1.0477 4.77312C1.3208 4.27593 1.73746 3.86978 2.20663 3.55817C2.77385 3.18353 3.40758 2.92793 4.05182 2.72135C4.02381 2.0421 3.9958 1.36285 3.96779 0.683594Z" fill="#CAFF33"/>
</svg>
