<svg width="99" height="98" viewBox="0 0 99 98" fill="none" xmlns="http://www.w3.org/2000/svg">
<rect x="0.333984" width="98" height="98" rx="49" fill="url(#paint0_linear_11_86912)" fill-opacity="0.05"/>
<rect x="12.334" y="12" width="74" height="74" rx="37" fill="url(#paint1_linear_11_86912)" fill-opacity="0.1"/>
<rect x="12.834" y="12.5" width="73" height="73" rx="36.5" stroke="url(#paint2_linear_11_86912)" stroke-opacity="0.2"/>
<path d="M49.334 42.625C47.5736 42.625 46.1465 44.0521 46.1465 45.8125C46.1465 47.5729 47.5736 49 49.334 49C51.0944 49 52.5215 47.5729 52.5215 45.8125C52.5215 44.0521 51.0944 42.625 49.334 42.625Z" fill="#CAFF33"/>
<path fill-rule="evenodd" clip-rule="evenodd" d="M34.459 38.9062C34.459 37.4392 35.6482 36.25 37.1152 36.25H61.5527C63.0197 36.25 64.209 37.4392 64.209 38.9062V52.7188C64.209 54.1858 63.0197 55.375 61.5527 55.375H37.1152C35.6482 55.375 34.459 54.1858 34.459 52.7188V38.9062ZM44.0215 45.8125C44.0215 42.8785 46.4 40.5 49.334 40.5C52.268 40.5 54.6465 42.8785 54.6465 45.8125C54.6465 48.7465 52.268 51.125 49.334 51.125C46.4 51.125 44.0215 48.7465 44.0215 45.8125ZM58.8965 44.75C58.3097 44.75 57.834 45.2257 57.834 45.8125V45.8231C57.834 46.4099 58.3097 46.8856 58.8965 46.8856H58.9071C59.4939 46.8856 59.9696 46.4099 59.9696 45.8231V45.8125C59.9696 45.2257 59.4939 44.75 58.9071 44.75H58.8965ZM38.709 45.8125C38.709 45.2257 39.1847 44.75 39.7715 44.75H39.7821C40.3689 44.75 40.8446 45.2257 40.8446 45.8125V45.8231C40.8446 46.4099 40.3689 46.8856 39.7821 46.8856H39.7715C39.1847 46.8856 38.709 46.4099 38.709 45.8231V45.8125Z" fill="#CAFF33"/>
<path d="M35.5215 57.5C34.9347 57.5 34.459 57.9757 34.459 58.5625C34.459 59.1493 34.9347 59.625 35.5215 59.625C43.1716 59.625 50.581 60.6481 57.6212 62.5644C59.3078 63.0235 61.0215 61.7738 61.0215 59.9864V58.5625C61.0215 57.9757 60.5458 57.5 59.959 57.5H35.5215Z" fill="#CAFF33"/>
<defs>
<linearGradient id="paint0_linear_11_86912" x1="49.334" y1="0" x2="49.334" y2="98" gradientUnits="userSpaceOnUse">
<stop stop-color="#CAFF33"/>
<stop offset="1" stop-color="#CAFF33" stop-opacity="0"/>
</linearGradient>
<linearGradient id="paint1_linear_11_86912" x1="49.334" y1="-37" x2="49.334" y2="203" gradientUnits="userSpaceOnUse">
<stop stop-color="#CAFF33"/>
<stop offset="0.467671" stop-color="#CAFF33" stop-opacity="0"/>
</linearGradient>
<linearGradient id="paint2_linear_11_86912" x1="49.334" y1="-116.5" x2="49.334" y2="153" gradientUnits="userSpaceOnUse">
<stop stop-color="#CAFF33"/>
<stop offset="0.716291" stop-color="#CAFF33" stop-opacity="0"/>
</linearGradient>
</defs>
</svg>
