<svg width="480" height="60" viewBox="0 0 480 60" fill="none" xmlns="http://www.w3.org/2000/svg">
<line x1="0.666992" y1="29.5" x2="190" y2="29.5" stroke="#262626"/>
<path d="M231.269 47.8235C231.269 49.2042 230.149 50.3235 228.769 50.3235H217.5C216.119 50.3235 215 49.2042 215 47.8235V38.7161C215 35.4601 215.595 32.0841 216.776 28.5911L216.777 28.5881C217.993 25.0631 219.638 21.74 221.711 18.6194V18.6174C223.509 15.9252 225.494 13.588 227.665 11.6086C228.498 10.8492 229.727 10.8006 230.643 11.4104L236.669 15.426C237.809 16.1859 238.114 17.7084 237.419 18.8655C235.8 21.5607 234.409 24.3541 233.247 27.2463L233.248 27.2473C231.896 30.6653 231.234 34.4484 231.269 38.6028V47.8235ZM258.148 47.8235C258.148 49.2042 257.029 50.3235 255.648 50.3235H244.38C242.999 50.3235 241.88 49.2042 241.88 47.8235V38.7161C241.88 35.4601 242.474 32.0841 243.655 28.5911L243.656 28.5881C244.872 25.0631 246.517 21.74 248.59 18.6194L248.591 18.6174C250.389 15.9253 252.373 13.588 254.544 11.6086C255.377 10.8489 256.607 10.8006 257.522 11.4104L263.549 15.426C264.689 16.1859 264.993 17.7084 264.299 18.8655C262.68 21.5607 261.288 24.3541 260.127 27.2463L260.128 27.2473C258.776 30.6653 258.114 34.4484 258.148 38.6028V47.8235Z" fill="url(#paint0_linear_11_89094)" stroke="#CAFF33"/>
<line x1="290" y1="29.5" x2="479.333" y2="29.5" stroke="#262626"/>
<defs>
<linearGradient id="paint0_linear_11_89094" x1="240.206" y1="11.0002" x2="240.206" y2="49.8238" gradientUnits="userSpaceOnUse">
<stop stop-color="#CAFF33"/>
<stop offset="1" stop-color="#191919"/>
</linearGradient>
</defs>
</svg>
