<svg width="39" height="39" viewBox="0 0 39 39" fill="none" xmlns="http://www.w3.org/2000/svg">
<rect x="0.470703" y="0.320068" width="38.1496" height="38.1496" rx="19.0748" fill="#CAFF33"/>
<path fill-rule="evenodd" clip-rule="evenodd" d="M22.876 11.3206C22.5828 11.6365 22.6011 12.1302 22.9169 12.4234L25.1023 14.4527L16.1648 14.4527C15.7338 14.4527 15.3844 14.8021 15.3844 15.2331C15.3844 15.664 15.7338 16.0134 16.1648 16.0134L25.1023 16.0134L22.9169 18.0427C22.6011 18.3359 22.5828 18.8297 22.876 19.1455C23.1693 19.4613 23.663 19.4796 23.9788 19.1863L27.6204 15.8049C27.7794 15.6572 27.8697 15.4501 27.8697 15.2331C27.8697 15.0161 27.7794 14.8089 27.6204 14.6612L23.9788 11.2798C23.663 10.9866 23.1693 11.0048 22.876 11.3206ZM16.2164 19.6442C15.9231 19.3284 15.4294 19.3101 15.1136 19.6033L11.472 22.9848C11.313 23.1324 11.2227 23.3396 11.2227 23.5566C11.2227 23.7736 11.313 23.9808 11.472 24.1284L15.1136 27.5099C15.4294 27.8031 15.9231 27.7848 16.2164 27.469C16.5096 27.1532 16.4913 26.6595 16.1755 26.3662L13.9901 24.3369H22.9276C23.3586 24.3369 23.708 23.9876 23.708 23.5566C23.708 23.1256 23.3586 22.7763 22.9276 22.7763H13.9901L16.1755 20.747C16.4913 20.4537 16.5096 19.96 16.2164 19.6442Z" fill="#1C1C1C"/>
</svg>
