<svg width="99" height="98" viewBox="0 0 99 98" fill="none" xmlns="http://www.w3.org/2000/svg">
<rect x="0.666992" width="98" height="98" rx="49" fill="url(#paint0_linear_11_86875)" fill-opacity="0.05"/>
<rect x="12.667" y="12" width="74" height="74" rx="37" fill="url(#paint1_linear_11_86875)" fill-opacity="0.1"/>
<rect x="13.167" y="12.5" width="73" height="73" rx="36.5" stroke="url(#paint2_linear_11_86875)" stroke-opacity="0.2"/>
<path d="M47.5459 53.1814C46.5913 53.1814 46.0321 52.644 46.0321 51.6796V50.5637C42.0226 50.2881 38.0267 49.4615 33.8809 47.877V45.6038C38.9814 47.8633 44.0955 48.6624 49.6598 48.6624C55.2376 48.6624 60.3518 47.8633 65.4523 45.6038V47.877C61.3064 49.4615 57.3105 50.2881 53.301 50.5637V51.6796C53.301 52.644 52.7419 53.1814 51.7872 53.1814H47.5459ZM38.0949 62.3432H61.2382C64.0612 62.3432 65.4523 60.9656 65.4523 58.1412V44.7359C65.4523 41.9115 64.0612 40.5338 61.2382 40.5338H38.0949C35.2855 40.5338 33.8809 41.9115 33.8809 44.7359V58.1412C33.8809 60.9656 35.2855 62.3432 38.0949 62.3432ZM42.7454 41.7324H44.8593V39.2938C44.8593 38.2467 45.473 37.6543 46.5367 37.6543H52.7964C53.8602 37.6543 54.4603 38.2467 54.4603 39.2938V41.7048H56.5741V39.4454C56.5741 36.8552 55.2239 35.6428 52.7556 35.6428H46.5639C44.2319 35.6428 42.7454 36.8552 42.7454 39.4454V41.7324Z" fill="#CAFF33"/>
<defs>
<linearGradient id="paint0_linear_11_86875" x1="49.667" y1="0" x2="49.667" y2="98" gradientUnits="userSpaceOnUse">
<stop stop-color="#CAFF33"/>
<stop offset="1" stop-color="#CAFF33" stop-opacity="0"/>
</linearGradient>
<linearGradient id="paint1_linear_11_86875" x1="49.667" y1="-37" x2="49.667" y2="203" gradientUnits="userSpaceOnUse">
<stop stop-color="#CAFF33"/>
<stop offset="0.467671" stop-color="#CAFF33" stop-opacity="0"/>
</linearGradient>
<linearGradient id="paint2_linear_11_86875" x1="49.667" y1="-116.5" x2="49.667" y2="153" gradientUnits="userSpaceOnUse">
<stop stop-color="#CAFF33"/>
<stop offset="0.716291" stop-color="#CAFF33" stop-opacity="0"/>
</linearGradient>
</defs>
</svg>
